<mxfile host="65bd71144e">
    <diagram id="HQUtkwuXZnpUhqAkpn8E" name="Page-3">
        <mxGraphModel dx="1943" dy="901" grid="1" gridSize="10" guides="1" tooltips="1" connect="1" arrows="1" fold="1" page="1" pageScale="1" pageWidth="850" pageHeight="1100" math="0" shadow="0">
            <root>
                <mxCell id="0"/>
                <mxCell id="1" parent="0"/>
                <mxCell id="Wj2gzKZm5fQm7VKQhD4e-1" value="" style="rounded=0;whiteSpace=wrap;html=1;fillColor=#fad7ac;strokeColor=#b46504;" vertex="1" parent="1">
                    <mxGeometry x="200" y="160" width="80" height="80" as="geometry"/>
                </mxCell>
                <mxCell id="Wj2gzKZm5fQm7VKQhD4e-2" value="block3 addr" style="rounded=0;whiteSpace=wrap;html=1;fillColor=#d0cee2;strokeColor=#56517e;" vertex="1" parent="1">
                    <mxGeometry x="200" y="240" width="80" height="40" as="geometry"/>
                </mxCell>
                <mxCell id="Wj2gzKZm5fQm7VKQhD4e-3" value="" style="rounded=0;whiteSpace=wrap;html=1;fillColor=#fad7ac;strokeColor=#b46504;" vertex="1" parent="1">
                    <mxGeometry x="200" y="280" width="80" height="80" as="geometry"/>
                </mxCell>
                <mxCell id="Wj2gzKZm5fQm7VKQhD4e-4" value="block2 addr" style="rounded=0;whiteSpace=wrap;html=1;fillColor=#fad9d5;strokeColor=#ae4132;fontColor=#000000;" vertex="1" parent="1">
                    <mxGeometry x="200" y="360" width="80" height="40" as="geometry"/>
                </mxCell>
                <mxCell id="Wj2gzKZm5fQm7VKQhD4e-5" value="" style="rounded=0;whiteSpace=wrap;html=1;fillColor=#fad7ac;strokeColor=#b46504;" vertex="1" parent="1">
                    <mxGeometry x="200" y="400" width="80" height="80" as="geometry"/>
                </mxCell>
                <mxCell id="Wj2gzKZm5fQm7VKQhD4e-6" value="block1 addr" style="rounded=0;whiteSpace=wrap;html=1;fillColor=#fad9d5;strokeColor=#ae4132;fontColor=#000000;" vertex="1" parent="1">
                    <mxGeometry x="200" y="480" width="80" height="40" as="geometry"/>
                </mxCell>
                <mxCell id="Wj2gzKZm5fQm7VKQhD4e-7" value="" style="rounded=0;whiteSpace=wrap;html=1;fillColor=#fad7ac;strokeColor=#b46504;" vertex="1" parent="1">
                    <mxGeometry x="200" y="520" width="80" height="80" as="geometry"/>
                </mxCell>
                <mxCell id="Wj2gzKZm5fQm7VKQhD4e-8" value="" style="rounded=0;whiteSpace=wrap;html=1;fillColor=#fad9d5;strokeColor=#ae4132;fontColor=#000000;" vertex="1" parent="1">
                    <mxGeometry x="200" y="600" width="80" height="40" as="geometry"/>
                </mxCell>
                <mxCell id="Wj2gzKZm5fQm7VKQhD4e-9" value="" style="shape=curlyBracket;whiteSpace=wrap;html=1;rounded=1;flipH=1;labelPosition=right;verticalLabelPosition=middle;align=left;verticalAlign=middle;" vertex="1" parent="1">
                    <mxGeometry x="290" y="520" width="20" height="120" as="geometry"/>
                </mxCell>
                <mxCell id="Wj2gzKZm5fQm7VKQhD4e-10" value="" style="shape=curlyBracket;whiteSpace=wrap;html=1;rounded=1;flipH=1;labelPosition=right;verticalLabelPosition=middle;align=left;verticalAlign=middle;" vertex="1" parent="1">
                    <mxGeometry x="290" y="400" width="20" height="120" as="geometry"/>
                </mxCell>
                <mxCell id="Wj2gzKZm5fQm7VKQhD4e-11" value="" style="shape=curlyBracket;whiteSpace=wrap;html=1;rounded=1;flipH=1;labelPosition=right;verticalLabelPosition=middle;align=left;verticalAlign=middle;" vertex="1" parent="1">
                    <mxGeometry x="290" y="280" width="20" height="120" as="geometry"/>
                </mxCell>
                <mxCell id="Wj2gzKZm5fQm7VKQhD4e-12" value="" style="shape=curlyBracket;whiteSpace=wrap;html=1;rounded=1;flipH=1;labelPosition=right;verticalLabelPosition=middle;align=left;verticalAlign=middle;" vertex="1" parent="1">
                    <mxGeometry x="290" y="160" width="20" height="120" as="geometry"/>
                </mxCell>
                <mxCell id="Wj2gzKZm5fQm7VKQhD4e-13" value="block1" style="text;html=1;strokeColor=none;fillColor=none;align=center;verticalAlign=middle;whiteSpace=wrap;rounded=0;" vertex="1" parent="1">
                    <mxGeometry x="320" y="565" width="40" height="30" as="geometry"/>
                </mxCell>
                <mxCell id="Wj2gzKZm5fQm7VKQhD4e-14" value="block4" style="text;html=1;strokeColor=none;fillColor=none;align=center;verticalAlign=middle;whiteSpace=wrap;rounded=0;" vertex="1" parent="1">
                    <mxGeometry x="320" y="205" width="40" height="30" as="geometry"/>
                </mxCell>
                <mxCell id="Wj2gzKZm5fQm7VKQhD4e-15" value="block3" style="text;html=1;strokeColor=none;fillColor=none;align=center;verticalAlign=middle;whiteSpace=wrap;rounded=0;" vertex="1" parent="1">
                    <mxGeometry x="320" y="325" width="40" height="30" as="geometry"/>
                </mxCell>
                <mxCell id="Wj2gzKZm5fQm7VKQhD4e-16" value="block2" style="text;html=1;strokeColor=none;fillColor=none;align=center;verticalAlign=middle;whiteSpace=wrap;rounded=0;" vertex="1" parent="1">
                    <mxGeometry x="320" y="445" width="40" height="30" as="geometry"/>
                </mxCell>
                <mxCell id="Wj2gzKZm5fQm7VKQhD4e-17" value="" style="endArrow=classic;html=1;entryX=0;entryY=0;entryDx=0;entryDy=0;" edge="1" parent="1">
                    <mxGeometry width="50" height="50" relative="1" as="geometry">
                        <mxPoint x="160" y="280" as="sourcePoint"/>
                        <mxPoint x="200" y="280" as="targetPoint"/>
                    </mxGeometry>
                </mxCell>
                <mxCell id="Wj2gzKZm5fQm7VKQhD4e-18" value="" style="endArrow=classic;html=1;entryX=0;entryY=0;entryDx=0;entryDy=0;" edge="1" parent="1">
                    <mxGeometry width="50" height="50" relative="1" as="geometry">
                        <mxPoint x="160" y="400" as="sourcePoint"/>
                        <mxPoint x="200" y="399.1700000000001" as="targetPoint"/>
                    </mxGeometry>
                </mxCell>
                <mxCell id="Wj2gzKZm5fQm7VKQhD4e-19" value="" style="endArrow=classic;html=1;entryX=0;entryY=0;entryDx=0;entryDy=0;" edge="1" parent="1">
                    <mxGeometry width="50" height="50" relative="1" as="geometry">
                        <mxPoint x="160" y="519" as="sourcePoint"/>
                        <mxPoint x="200" y="519.1700000000001" as="targetPoint"/>
                    </mxGeometry>
                </mxCell>
                <mxCell id="Wj2gzKZm5fQm7VKQhD4e-20" value="" style="endArrow=classic;html=1;entryX=0;entryY=0;entryDx=0;entryDy=0;" edge="1" parent="1">
                    <mxGeometry width="50" height="50" relative="1" as="geometry">
                        <mxPoint x="160" y="639" as="sourcePoint"/>
                        <mxPoint x="200" y="639.1700000000001" as="targetPoint"/>
                    </mxGeometry>
                </mxCell>
                <mxCell id="Wj2gzKZm5fQm7VKQhD4e-21" value="block1 addr" style="text;html=1;strokeColor=none;fillColor=none;align=center;verticalAlign=middle;whiteSpace=wrap;rounded=0;" vertex="1" parent="1">
                    <mxGeometry x="90" y="630" width="70" height="20" as="geometry"/>
                </mxCell>
                <mxCell id="Wj2gzKZm5fQm7VKQhD4e-22" value="block2 addr" style="text;html=1;strokeColor=none;fillColor=none;align=center;verticalAlign=middle;whiteSpace=wrap;rounded=0;" vertex="1" parent="1">
                    <mxGeometry x="90" y="510" width="70" height="20" as="geometry"/>
                </mxCell>
                <mxCell id="Wj2gzKZm5fQm7VKQhD4e-23" value="block3 addr" style="text;html=1;strokeColor=none;fillColor=none;align=center;verticalAlign=middle;whiteSpace=wrap;rounded=0;" vertex="1" parent="1">
                    <mxGeometry x="90" y="390" width="70" height="20" as="geometry"/>
                </mxCell>
                <mxCell id="Wj2gzKZm5fQm7VKQhD4e-24" value="block4 addr" style="text;html=1;strokeColor=none;fillColor=none;align=center;verticalAlign=middle;whiteSpace=wrap;rounded=0;" vertex="1" parent="1">
                    <mxGeometry x="90" y="270" width="70" height="20" as="geometry"/>
                </mxCell>
                <mxCell id="Wj2gzKZm5fQm7VKQhD4e-25" value="" style="curved=1;endArrow=classic;html=1;entryX=0.25;entryY=0;entryDx=0;entryDy=0;" edge="1" parent="1">
                    <mxGeometry width="50" height="50" relative="1" as="geometry">
                        <mxPoint x="30" y="365" as="sourcePoint"/>
                        <mxPoint x="107.5" y="380" as="targetPoint"/>
                        <Array as="points">
                            <mxPoint x="60" y="390"/>
                            <mxPoint x="70" y="350"/>
                        </Array>
                    </mxGeometry>
                </mxCell>
                <mxCell id="Wj2gzKZm5fQm7VKQhD4e-26" value="free_list" style="text;html=1;strokeColor=none;fillColor=none;align=center;verticalAlign=middle;whiteSpace=wrap;rounded=0;" vertex="1" parent="1">
                    <mxGeometry x="-20" y="340" width="70" height="20" as="geometry"/>
                </mxCell>
                <mxCell id="Wj2gzKZm5fQm7VKQhD4e-27" value="" style="rounded=0;whiteSpace=wrap;html=1;fillColor=#d0cee2;strokeColor=#56517e;" vertex="1" parent="1">
                    <mxGeometry x="200" y="160" width="80" height="80" as="geometry"/>
                </mxCell>
                <mxCell id="Wj2gzKZm5fQm7VKQhD4e-28" value="" style="rounded=0;whiteSpace=wrap;html=1;fillColor=#fad7ac;strokeColor=#b46504;" vertex="1" parent="1">
                    <mxGeometry x="-205" y="160" width="80" height="80" as="geometry"/>
                </mxCell>
                <mxCell id="Wj2gzKZm5fQm7VKQhD4e-29" value="block3 addr" style="rounded=0;whiteSpace=wrap;html=1;fillColor=#d0cee2;strokeColor=#56517e;" vertex="1" parent="1">
                    <mxGeometry x="-205" y="240" width="80" height="40" as="geometry"/>
                </mxCell>
                <mxCell id="Wj2gzKZm5fQm7VKQhD4e-30" value="" style="rounded=0;whiteSpace=wrap;html=1;fillColor=#d0cee2;strokeColor=#56517e;" vertex="1" parent="1">
                    <mxGeometry x="-205" y="280" width="80" height="80" as="geometry"/>
                </mxCell>
                <mxCell id="Wj2gzKZm5fQm7VKQhD4e-31" value="block2 addr" style="rounded=0;whiteSpace=wrap;html=1;fillColor=#d0cee2;strokeColor=#56517e;" vertex="1" parent="1">
                    <mxGeometry x="-205" y="360" width="80" height="40" as="geometry"/>
                </mxCell>
                <mxCell id="Wj2gzKZm5fQm7VKQhD4e-32" value="" style="rounded=0;whiteSpace=wrap;html=1;fillColor=#fad7ac;strokeColor=#b46504;" vertex="1" parent="1">
                    <mxGeometry x="-205" y="400" width="80" height="80" as="geometry"/>
                </mxCell>
                <mxCell id="Wj2gzKZm5fQm7VKQhD4e-33" value="block1 addr" style="rounded=0;whiteSpace=wrap;html=1;fillColor=#fad9d5;strokeColor=#ae4132;fontColor=#000000;" vertex="1" parent="1">
                    <mxGeometry x="-205" y="480" width="80" height="40" as="geometry"/>
                </mxCell>
                <mxCell id="Wj2gzKZm5fQm7VKQhD4e-34" value="" style="rounded=0;whiteSpace=wrap;html=1;fillColor=#fad7ac;strokeColor=#b46504;" vertex="1" parent="1">
                    <mxGeometry x="-205" y="520" width="80" height="80" as="geometry"/>
                </mxCell>
                <mxCell id="Wj2gzKZm5fQm7VKQhD4e-35" value="" style="rounded=0;whiteSpace=wrap;html=1;fillColor=#fad9d5;strokeColor=#ae4132;fontColor=#000000;" vertex="1" parent="1">
                    <mxGeometry x="-205" y="600" width="80" height="40" as="geometry"/>
                </mxCell>
                <mxCell id="Wj2gzKZm5fQm7VKQhD4e-36" value="" style="shape=curlyBracket;whiteSpace=wrap;html=1;rounded=1;flipH=1;labelPosition=right;verticalLabelPosition=middle;align=left;verticalAlign=middle;" vertex="1" parent="1">
                    <mxGeometry x="-115" y="520" width="20" height="120" as="geometry"/>
                </mxCell>
                <mxCell id="Wj2gzKZm5fQm7VKQhD4e-37" value="" style="shape=curlyBracket;whiteSpace=wrap;html=1;rounded=1;flipH=1;labelPosition=right;verticalLabelPosition=middle;align=left;verticalAlign=middle;" vertex="1" parent="1">
                    <mxGeometry x="-115" y="400" width="20" height="120" as="geometry"/>
                </mxCell>
                <mxCell id="Wj2gzKZm5fQm7VKQhD4e-38" value="" style="shape=curlyBracket;whiteSpace=wrap;html=1;rounded=1;flipH=1;labelPosition=right;verticalLabelPosition=middle;align=left;verticalAlign=middle;" vertex="1" parent="1">
                    <mxGeometry x="-115" y="280" width="20" height="120" as="geometry"/>
                </mxCell>
                <mxCell id="Wj2gzKZm5fQm7VKQhD4e-39" value="" style="shape=curlyBracket;whiteSpace=wrap;html=1;rounded=1;flipH=1;labelPosition=right;verticalLabelPosition=middle;align=left;verticalAlign=middle;" vertex="1" parent="1">
                    <mxGeometry x="-115" y="160" width="20" height="120" as="geometry"/>
                </mxCell>
                <mxCell id="Wj2gzKZm5fQm7VKQhD4e-40" value="block1" style="text;html=1;strokeColor=none;fillColor=none;align=center;verticalAlign=middle;whiteSpace=wrap;rounded=0;" vertex="1" parent="1">
                    <mxGeometry x="-85" y="565" width="40" height="30" as="geometry"/>
                </mxCell>
                <mxCell id="Wj2gzKZm5fQm7VKQhD4e-41" value="block4" style="text;html=1;strokeColor=none;fillColor=none;align=center;verticalAlign=middle;whiteSpace=wrap;rounded=0;" vertex="1" parent="1">
                    <mxGeometry x="-85" y="205" width="40" height="30" as="geometry"/>
                </mxCell>
                <mxCell id="Wj2gzKZm5fQm7VKQhD4e-42" value="block3" style="text;html=1;strokeColor=none;fillColor=none;align=center;verticalAlign=middle;whiteSpace=wrap;rounded=0;" vertex="1" parent="1">
                    <mxGeometry x="-85" y="325" width="40" height="30" as="geometry"/>
                </mxCell>
                <mxCell id="Wj2gzKZm5fQm7VKQhD4e-43" value="block2" style="text;html=1;strokeColor=none;fillColor=none;align=center;verticalAlign=middle;whiteSpace=wrap;rounded=0;" vertex="1" parent="1">
                    <mxGeometry x="-85" y="445" width="40" height="30" as="geometry"/>
                </mxCell>
                <mxCell id="Wj2gzKZm5fQm7VKQhD4e-44" value="" style="endArrow=classic;html=1;entryX=0;entryY=0;entryDx=0;entryDy=0;" edge="1" parent="1">
                    <mxGeometry width="50" height="50" relative="1" as="geometry">
                        <mxPoint x="-245" y="280" as="sourcePoint"/>
                        <mxPoint x="-205" y="280" as="targetPoint"/>
                    </mxGeometry>
                </mxCell>
                <mxCell id="Wj2gzKZm5fQm7VKQhD4e-45" value="" style="endArrow=classic;html=1;entryX=0;entryY=0;entryDx=0;entryDy=0;" edge="1" parent="1">
                    <mxGeometry width="50" height="50" relative="1" as="geometry">
                        <mxPoint x="-245" y="400" as="sourcePoint"/>
                        <mxPoint x="-205" y="399.1700000000001" as="targetPoint"/>
                    </mxGeometry>
                </mxCell>
                <mxCell id="Wj2gzKZm5fQm7VKQhD4e-46" value="" style="endArrow=classic;html=1;entryX=0;entryY=0;entryDx=0;entryDy=0;" edge="1" parent="1">
                    <mxGeometry width="50" height="50" relative="1" as="geometry">
                        <mxPoint x="-245" y="519" as="sourcePoint"/>
                        <mxPoint x="-205" y="519.1700000000001" as="targetPoint"/>
                    </mxGeometry>
                </mxCell>
                <mxCell id="Wj2gzKZm5fQm7VKQhD4e-47" value="" style="endArrow=classic;html=1;entryX=0;entryY=0;entryDx=0;entryDy=0;" edge="1" parent="1">
                    <mxGeometry width="50" height="50" relative="1" as="geometry">
                        <mxPoint x="-245" y="639" as="sourcePoint"/>
                        <mxPoint x="-205" y="639.1700000000001" as="targetPoint"/>
                    </mxGeometry>
                </mxCell>
                <mxCell id="Wj2gzKZm5fQm7VKQhD4e-48" value="block1 addr" style="text;html=1;strokeColor=none;fillColor=none;align=center;verticalAlign=middle;whiteSpace=wrap;rounded=0;" vertex="1" parent="1">
                    <mxGeometry x="-315" y="630" width="70" height="20" as="geometry"/>
                </mxCell>
                <mxCell id="Wj2gzKZm5fQm7VKQhD4e-49" value="block2 addr" style="text;html=1;strokeColor=none;fillColor=none;align=center;verticalAlign=middle;whiteSpace=wrap;rounded=0;" vertex="1" parent="1">
                    <mxGeometry x="-315" y="510" width="70" height="20" as="geometry"/>
                </mxCell>
                <mxCell id="Wj2gzKZm5fQm7VKQhD4e-50" value="block3 addr" style="text;html=1;strokeColor=none;fillColor=none;align=center;verticalAlign=middle;whiteSpace=wrap;rounded=0;" vertex="1" parent="1">
                    <mxGeometry x="-315" y="390" width="70" height="20" as="geometry"/>
                </mxCell>
                <mxCell id="Wj2gzKZm5fQm7VKQhD4e-51" value="block4 addr" style="text;html=1;strokeColor=none;fillColor=none;align=center;verticalAlign=middle;whiteSpace=wrap;rounded=0;" vertex="1" parent="1">
                    <mxGeometry x="-315" y="270" width="70" height="20" as="geometry"/>
                </mxCell>
                <mxCell id="Wj2gzKZm5fQm7VKQhD4e-52" value="" style="curved=1;endArrow=classic;html=1;entryX=0.25;entryY=0;entryDx=0;entryDy=0;" edge="1" parent="1">
                    <mxGeometry width="50" height="50" relative="1" as="geometry">
                        <mxPoint x="-375" y="490" as="sourcePoint"/>
                        <mxPoint x="-297.5" y="505" as="targetPoint"/>
                        <Array as="points">
                            <mxPoint x="-345" y="515"/>
                            <mxPoint x="-335" y="475"/>
                        </Array>
                    </mxGeometry>
                </mxCell>
                <mxCell id="Wj2gzKZm5fQm7VKQhD4e-53" value="free_list" style="text;html=1;strokeColor=none;fillColor=none;align=center;verticalAlign=middle;whiteSpace=wrap;rounded=0;" vertex="1" parent="1">
                    <mxGeometry x="-425" y="465" width="70" height="20" as="geometry"/>
                </mxCell>
                <mxCell id="Wj2gzKZm5fQm7VKQhD4e-54" value="" style="rounded=0;whiteSpace=wrap;html=1;fillColor=#d0cee2;strokeColor=#56517e;" vertex="1" parent="1">
                    <mxGeometry x="-205" y="160" width="80" height="80" as="geometry"/>
                </mxCell>
            </root>
        </mxGraphModel>
    </diagram>
    <diagram id="KrcwoJH-bcJXnGQvwVAi" name="Page-2">
        <mxGraphModel dx="2177" dy="1094" grid="1" gridSize="10" guides="1" tooltips="1" connect="1" arrows="1" fold="1" page="1" pageScale="1" pageWidth="850" pageHeight="1100" math="0" shadow="0">
            <root>
                <mxCell id="0"/>
                <mxCell id="1" parent="0"/>
                <mxCell id="SottTY__-MR0KvvPnSu5-1" value="" style="rounded=0;whiteSpace=wrap;html=1;fillColor=#fad7ac;strokeColor=#b46504;" vertex="1" parent="1">
                    <mxGeometry x="200" y="160" width="80" height="80" as="geometry"/>
                </mxCell>
                <mxCell id="SottTY__-MR0KvvPnSu5-2" value="block3 addr" style="rounded=0;whiteSpace=wrap;html=1;fillColor=#d0cee2;strokeColor=#56517e;" vertex="1" parent="1">
                    <mxGeometry x="200" y="240" width="80" height="40" as="geometry"/>
                </mxCell>
                <mxCell id="SottTY__-MR0KvvPnSu5-3" value="" style="rounded=0;whiteSpace=wrap;html=1;fillColor=#fad7ac;strokeColor=#b46504;" vertex="1" parent="1">
                    <mxGeometry x="200" y="280" width="80" height="80" as="geometry"/>
                </mxCell>
                <mxCell id="SottTY__-MR0KvvPnSu5-4" value="block2 addr" style="rounded=0;whiteSpace=wrap;html=1;fillColor=#fad9d5;strokeColor=#ae4132;fontColor=#000000;" vertex="1" parent="1">
                    <mxGeometry x="200" y="360" width="80" height="40" as="geometry"/>
                </mxCell>
                <mxCell id="SottTY__-MR0KvvPnSu5-5" value="" style="rounded=0;whiteSpace=wrap;html=1;fillColor=#fad7ac;strokeColor=#b46504;" vertex="1" parent="1">
                    <mxGeometry x="200" y="400" width="80" height="80" as="geometry"/>
                </mxCell>
                <mxCell id="SottTY__-MR0KvvPnSu5-6" value="block1 addr" style="rounded=0;whiteSpace=wrap;html=1;fillColor=#fad9d5;strokeColor=#ae4132;fontColor=#000000;" vertex="1" parent="1">
                    <mxGeometry x="200" y="480" width="80" height="40" as="geometry"/>
                </mxCell>
                <mxCell id="SottTY__-MR0KvvPnSu5-7" value="" style="rounded=0;whiteSpace=wrap;html=1;fillColor=#fad7ac;strokeColor=#b46504;" vertex="1" parent="1">
                    <mxGeometry x="200" y="520" width="80" height="80" as="geometry"/>
                </mxCell>
                <mxCell id="SottTY__-MR0KvvPnSu5-8" value="" style="rounded=0;whiteSpace=wrap;html=1;fillColor=#fad9d5;strokeColor=#ae4132;fontColor=#000000;" vertex="1" parent="1">
                    <mxGeometry x="200" y="600" width="80" height="40" as="geometry"/>
                </mxCell>
                <mxCell id="SottTY__-MR0KvvPnSu5-9" value="" style="shape=curlyBracket;whiteSpace=wrap;html=1;rounded=1;flipH=1;labelPosition=right;verticalLabelPosition=middle;align=left;verticalAlign=middle;" vertex="1" parent="1">
                    <mxGeometry x="290" y="520" width="20" height="120" as="geometry"/>
                </mxCell>
                <mxCell id="SottTY__-MR0KvvPnSu5-10" value="" style="shape=curlyBracket;whiteSpace=wrap;html=1;rounded=1;flipH=1;labelPosition=right;verticalLabelPosition=middle;align=left;verticalAlign=middle;" vertex="1" parent="1">
                    <mxGeometry x="290" y="400" width="20" height="120" as="geometry"/>
                </mxCell>
                <mxCell id="SottTY__-MR0KvvPnSu5-11" value="" style="shape=curlyBracket;whiteSpace=wrap;html=1;rounded=1;flipH=1;labelPosition=right;verticalLabelPosition=middle;align=left;verticalAlign=middle;" vertex="1" parent="1">
                    <mxGeometry x="290" y="280" width="20" height="120" as="geometry"/>
                </mxCell>
                <mxCell id="SottTY__-MR0KvvPnSu5-12" value="" style="shape=curlyBracket;whiteSpace=wrap;html=1;rounded=1;flipH=1;labelPosition=right;verticalLabelPosition=middle;align=left;verticalAlign=middle;" vertex="1" parent="1">
                    <mxGeometry x="290" y="160" width="20" height="120" as="geometry"/>
                </mxCell>
                <mxCell id="SottTY__-MR0KvvPnSu5-13" value="block1" style="text;html=1;strokeColor=none;fillColor=none;align=center;verticalAlign=middle;whiteSpace=wrap;rounded=0;" vertex="1" parent="1">
                    <mxGeometry x="320" y="565" width="40" height="30" as="geometry"/>
                </mxCell>
                <mxCell id="SottTY__-MR0KvvPnSu5-14" value="block4" style="text;html=1;strokeColor=none;fillColor=none;align=center;verticalAlign=middle;whiteSpace=wrap;rounded=0;" vertex="1" parent="1">
                    <mxGeometry x="320" y="205" width="40" height="30" as="geometry"/>
                </mxCell>
                <mxCell id="SottTY__-MR0KvvPnSu5-15" value="block3" style="text;html=1;strokeColor=none;fillColor=none;align=center;verticalAlign=middle;whiteSpace=wrap;rounded=0;" vertex="1" parent="1">
                    <mxGeometry x="320" y="325" width="40" height="30" as="geometry"/>
                </mxCell>
                <mxCell id="SottTY__-MR0KvvPnSu5-16" value="block2" style="text;html=1;strokeColor=none;fillColor=none;align=center;verticalAlign=middle;whiteSpace=wrap;rounded=0;" vertex="1" parent="1">
                    <mxGeometry x="320" y="445" width="40" height="30" as="geometry"/>
                </mxCell>
                <mxCell id="SottTY__-MR0KvvPnSu5-17" value="" style="endArrow=classic;html=1;entryX=0;entryY=0;entryDx=0;entryDy=0;" edge="1" parent="1">
                    <mxGeometry width="50" height="50" relative="1" as="geometry">
                        <mxPoint x="160" y="280" as="sourcePoint"/>
                        <mxPoint x="200" y="280" as="targetPoint"/>
                    </mxGeometry>
                </mxCell>
                <mxCell id="SottTY__-MR0KvvPnSu5-18" value="" style="endArrow=classic;html=1;entryX=0;entryY=0;entryDx=0;entryDy=0;" edge="1" parent="1">
                    <mxGeometry width="50" height="50" relative="1" as="geometry">
                        <mxPoint x="160" y="400" as="sourcePoint"/>
                        <mxPoint x="200" y="399.1700000000001" as="targetPoint"/>
                    </mxGeometry>
                </mxCell>
                <mxCell id="SottTY__-MR0KvvPnSu5-19" value="" style="endArrow=classic;html=1;entryX=0;entryY=0;entryDx=0;entryDy=0;" edge="1" parent="1">
                    <mxGeometry width="50" height="50" relative="1" as="geometry">
                        <mxPoint x="160" y="519" as="sourcePoint"/>
                        <mxPoint x="200" y="519.1700000000001" as="targetPoint"/>
                    </mxGeometry>
                </mxCell>
                <mxCell id="SottTY__-MR0KvvPnSu5-20" value="" style="endArrow=classic;html=1;entryX=0;entryY=0;entryDx=0;entryDy=0;" edge="1" parent="1">
                    <mxGeometry width="50" height="50" relative="1" as="geometry">
                        <mxPoint x="160" y="639" as="sourcePoint"/>
                        <mxPoint x="200" y="639.1700000000001" as="targetPoint"/>
                    </mxGeometry>
                </mxCell>
                <mxCell id="SottTY__-MR0KvvPnSu5-21" value="block1 addr" style="text;html=1;strokeColor=none;fillColor=none;align=center;verticalAlign=middle;whiteSpace=wrap;rounded=0;" vertex="1" parent="1">
                    <mxGeometry x="90" y="630" width="70" height="20" as="geometry"/>
                </mxCell>
                <mxCell id="SottTY__-MR0KvvPnSu5-22" value="block2 addr" style="text;html=1;strokeColor=none;fillColor=none;align=center;verticalAlign=middle;whiteSpace=wrap;rounded=0;" vertex="1" parent="1">
                    <mxGeometry x="90" y="510" width="70" height="20" as="geometry"/>
                </mxCell>
                <mxCell id="SottTY__-MR0KvvPnSu5-23" value="block3 addr" style="text;html=1;strokeColor=none;fillColor=none;align=center;verticalAlign=middle;whiteSpace=wrap;rounded=0;" vertex="1" parent="1">
                    <mxGeometry x="90" y="390" width="70" height="20" as="geometry"/>
                </mxCell>
                <mxCell id="SottTY__-MR0KvvPnSu5-24" value="block4 addr" style="text;html=1;strokeColor=none;fillColor=none;align=center;verticalAlign=middle;whiteSpace=wrap;rounded=0;" vertex="1" parent="1">
                    <mxGeometry x="90" y="270" width="70" height="20" as="geometry"/>
                </mxCell>
                <mxCell id="SottTY__-MR0KvvPnSu5-25" value="" style="curved=1;endArrow=classic;html=1;entryX=0.25;entryY=0;entryDx=0;entryDy=0;" edge="1" parent="1">
                    <mxGeometry width="50" height="50" relative="1" as="geometry">
                        <mxPoint x="30" y="365" as="sourcePoint"/>
                        <mxPoint x="107.49999999999977" y="380" as="targetPoint"/>
                        <Array as="points">
                            <mxPoint x="60" y="390"/>
                            <mxPoint x="70" y="350"/>
                        </Array>
                    </mxGeometry>
                </mxCell>
                <mxCell id="SottTY__-MR0KvvPnSu5-26" value="free_list" style="text;html=1;strokeColor=none;fillColor=none;align=center;verticalAlign=middle;whiteSpace=wrap;rounded=0;" vertex="1" parent="1">
                    <mxGeometry x="-20" y="340" width="70" height="20" as="geometry"/>
                </mxCell>
                <mxCell id="SottTY__-MR0KvvPnSu5-27" value="" style="rounded=0;whiteSpace=wrap;html=1;fillColor=#d0cee2;strokeColor=#56517e;" vertex="1" parent="1">
                    <mxGeometry x="200" y="160" width="80" height="80" as="geometry"/>
                </mxCell>
                <mxCell id="SottTY__-MR0KvvPnSu5-28" value="" style="rounded=0;whiteSpace=wrap;html=1;fillColor=#fad7ac;strokeColor=#b46504;" vertex="1" parent="1">
                    <mxGeometry x="620" y="155" width="80" height="80" as="geometry"/>
                </mxCell>
                <mxCell id="SottTY__-MR0KvvPnSu5-29" value="block3 addr" style="rounded=0;whiteSpace=wrap;html=1;fillColor=#d0cee2;strokeColor=#56517e;" vertex="1" parent="1">
                    <mxGeometry x="620" y="235" width="80" height="40" as="geometry"/>
                </mxCell>
                <mxCell id="SottTY__-MR0KvvPnSu5-30" value="" style="rounded=0;whiteSpace=wrap;html=1;fillColor=#d0cee2;strokeColor=#56517e;" vertex="1" parent="1">
                    <mxGeometry x="620" y="275" width="80" height="80" as="geometry"/>
                </mxCell>
                <mxCell id="SottTY__-MR0KvvPnSu5-31" value="block2 addr" style="rounded=0;whiteSpace=wrap;html=1;fillColor=#d0cee2;strokeColor=#56517e;" vertex="1" parent="1">
                    <mxGeometry x="620" y="355" width="80" height="40" as="geometry"/>
                </mxCell>
                <mxCell id="SottTY__-MR0KvvPnSu5-32" value="" style="rounded=0;whiteSpace=wrap;html=1;fillColor=#fad7ac;strokeColor=#b46504;" vertex="1" parent="1">
                    <mxGeometry x="620" y="395" width="80" height="80" as="geometry"/>
                </mxCell>
                <mxCell id="SottTY__-MR0KvvPnSu5-33" value="block1 addr" style="rounded=0;whiteSpace=wrap;html=1;fillColor=#fad9d5;strokeColor=#ae4132;fontColor=#000000;" vertex="1" parent="1">
                    <mxGeometry x="620" y="475" width="80" height="40" as="geometry"/>
                </mxCell>
                <mxCell id="SottTY__-MR0KvvPnSu5-34" value="" style="rounded=0;whiteSpace=wrap;html=1;fillColor=#fad7ac;strokeColor=#b46504;" vertex="1" parent="1">
                    <mxGeometry x="620" y="515" width="80" height="80" as="geometry"/>
                </mxCell>
                <mxCell id="SottTY__-MR0KvvPnSu5-35" value="" style="rounded=0;whiteSpace=wrap;html=1;fillColor=#fad9d5;strokeColor=#ae4132;fontColor=#000000;" vertex="1" parent="1">
                    <mxGeometry x="620" y="595" width="80" height="40" as="geometry"/>
                </mxCell>
                <mxCell id="SottTY__-MR0KvvPnSu5-36" value="" style="shape=curlyBracket;whiteSpace=wrap;html=1;rounded=1;flipH=1;labelPosition=right;verticalLabelPosition=middle;align=left;verticalAlign=middle;" vertex="1" parent="1">
                    <mxGeometry x="710" y="515" width="20" height="120" as="geometry"/>
                </mxCell>
                <mxCell id="SottTY__-MR0KvvPnSu5-37" value="" style="shape=curlyBracket;whiteSpace=wrap;html=1;rounded=1;flipH=1;labelPosition=right;verticalLabelPosition=middle;align=left;verticalAlign=middle;" vertex="1" parent="1">
                    <mxGeometry x="710" y="395" width="20" height="120" as="geometry"/>
                </mxCell>
                <mxCell id="SottTY__-MR0KvvPnSu5-38" value="" style="shape=curlyBracket;whiteSpace=wrap;html=1;rounded=1;flipH=1;labelPosition=right;verticalLabelPosition=middle;align=left;verticalAlign=middle;" vertex="1" parent="1">
                    <mxGeometry x="710" y="275" width="20" height="120" as="geometry"/>
                </mxCell>
                <mxCell id="SottTY__-MR0KvvPnSu5-39" value="" style="shape=curlyBracket;whiteSpace=wrap;html=1;rounded=1;flipH=1;labelPosition=right;verticalLabelPosition=middle;align=left;verticalAlign=middle;" vertex="1" parent="1">
                    <mxGeometry x="710" y="155" width="20" height="120" as="geometry"/>
                </mxCell>
                <mxCell id="SottTY__-MR0KvvPnSu5-40" value="block1" style="text;html=1;strokeColor=none;fillColor=none;align=center;verticalAlign=middle;whiteSpace=wrap;rounded=0;" vertex="1" parent="1">
                    <mxGeometry x="740" y="560" width="40" height="30" as="geometry"/>
                </mxCell>
                <mxCell id="SottTY__-MR0KvvPnSu5-41" value="block4" style="text;html=1;strokeColor=none;fillColor=none;align=center;verticalAlign=middle;whiteSpace=wrap;rounded=0;" vertex="1" parent="1">
                    <mxGeometry x="740" y="200" width="40" height="30" as="geometry"/>
                </mxCell>
                <mxCell id="SottTY__-MR0KvvPnSu5-42" value="block3" style="text;html=1;strokeColor=none;fillColor=none;align=center;verticalAlign=middle;whiteSpace=wrap;rounded=0;" vertex="1" parent="1">
                    <mxGeometry x="740" y="320" width="40" height="30" as="geometry"/>
                </mxCell>
                <mxCell id="SottTY__-MR0KvvPnSu5-43" value="block2" style="text;html=1;strokeColor=none;fillColor=none;align=center;verticalAlign=middle;whiteSpace=wrap;rounded=0;" vertex="1" parent="1">
                    <mxGeometry x="740" y="440" width="40" height="30" as="geometry"/>
                </mxCell>
                <mxCell id="SottTY__-MR0KvvPnSu5-44" value="" style="endArrow=classic;html=1;entryX=0;entryY=0;entryDx=0;entryDy=0;" edge="1" parent="1">
                    <mxGeometry width="50" height="50" relative="1" as="geometry">
                        <mxPoint x="580" y="275" as="sourcePoint"/>
                        <mxPoint x="620" y="275" as="targetPoint"/>
                    </mxGeometry>
                </mxCell>
                <mxCell id="SottTY__-MR0KvvPnSu5-45" value="" style="endArrow=classic;html=1;entryX=0;entryY=0;entryDx=0;entryDy=0;" edge="1" parent="1">
                    <mxGeometry width="50" height="50" relative="1" as="geometry">
                        <mxPoint x="580" y="395" as="sourcePoint"/>
                        <mxPoint x="620" y="394.1700000000001" as="targetPoint"/>
                    </mxGeometry>
                </mxCell>
                <mxCell id="SottTY__-MR0KvvPnSu5-46" value="" style="endArrow=classic;html=1;entryX=0;entryY=0;entryDx=0;entryDy=0;" edge="1" parent="1">
                    <mxGeometry width="50" height="50" relative="1" as="geometry">
                        <mxPoint x="580" y="514" as="sourcePoint"/>
                        <mxPoint x="620" y="514.1700000000001" as="targetPoint"/>
                    </mxGeometry>
                </mxCell>
                <mxCell id="SottTY__-MR0KvvPnSu5-47" value="" style="endArrow=classic;html=1;entryX=0;entryY=0;entryDx=0;entryDy=0;" edge="1" parent="1">
                    <mxGeometry width="50" height="50" relative="1" as="geometry">
                        <mxPoint x="580" y="634" as="sourcePoint"/>
                        <mxPoint x="620" y="634.1700000000001" as="targetPoint"/>
                    </mxGeometry>
                </mxCell>
                <mxCell id="SottTY__-MR0KvvPnSu5-48" value="block1 addr" style="text;html=1;strokeColor=none;fillColor=none;align=center;verticalAlign=middle;whiteSpace=wrap;rounded=0;" vertex="1" parent="1">
                    <mxGeometry x="510" y="625" width="70" height="20" as="geometry"/>
                </mxCell>
                <mxCell id="SottTY__-MR0KvvPnSu5-49" value="block2 addr" style="text;html=1;strokeColor=none;fillColor=none;align=center;verticalAlign=middle;whiteSpace=wrap;rounded=0;" vertex="1" parent="1">
                    <mxGeometry x="510" y="505" width="70" height="20" as="geometry"/>
                </mxCell>
                <mxCell id="SottTY__-MR0KvvPnSu5-50" value="block3 addr" style="text;html=1;strokeColor=none;fillColor=none;align=center;verticalAlign=middle;whiteSpace=wrap;rounded=0;" vertex="1" parent="1">
                    <mxGeometry x="510" y="385" width="70" height="20" as="geometry"/>
                </mxCell>
                <mxCell id="SottTY__-MR0KvvPnSu5-51" value="block4 addr" style="text;html=1;strokeColor=none;fillColor=none;align=center;verticalAlign=middle;whiteSpace=wrap;rounded=0;" vertex="1" parent="1">
                    <mxGeometry x="510" y="265" width="70" height="20" as="geometry"/>
                </mxCell>
                <mxCell id="SottTY__-MR0KvvPnSu5-52" value="" style="curved=1;endArrow=classic;html=1;entryX=0.25;entryY=0;entryDx=0;entryDy=0;" edge="1" parent="1">
                    <mxGeometry width="50" height="50" relative="1" as="geometry">
                        <mxPoint x="450" y="485" as="sourcePoint"/>
                        <mxPoint x="527.4999999999998" y="500" as="targetPoint"/>
                        <Array as="points">
                            <mxPoint x="480" y="510"/>
                            <mxPoint x="490" y="470"/>
                        </Array>
                    </mxGeometry>
                </mxCell>
                <mxCell id="SottTY__-MR0KvvPnSu5-53" value="free_list" style="text;html=1;strokeColor=none;fillColor=none;align=center;verticalAlign=middle;whiteSpace=wrap;rounded=0;" vertex="1" parent="1">
                    <mxGeometry x="400" y="460" width="70" height="20" as="geometry"/>
                </mxCell>
                <mxCell id="SottTY__-MR0KvvPnSu5-54" value="" style="rounded=0;whiteSpace=wrap;html=1;fillColor=#d0cee2;strokeColor=#56517e;" vertex="1" parent="1">
                    <mxGeometry x="620" y="155" width="80" height="80" as="geometry"/>
                </mxCell>
            </root>
        </mxGraphModel>
    </diagram>
    <diagram id="rK6chXtfgTS4GVuafw9K" name="Page-1">
        <mxGraphModel dx="1779" dy="766" grid="1" gridSize="10" guides="1" tooltips="1" connect="1" arrows="1" fold="1" page="1" pageScale="1" pageWidth="850" pageHeight="1100" math="0" shadow="0">
            <root>
                <mxCell id="0"/>
                <mxCell id="1" parent="0"/>
                <mxCell id="2" value="" style="rounded=0;whiteSpace=wrap;html=1;fillColor=#fad7ac;strokeColor=#b46504;" vertex="1" parent="1">
                    <mxGeometry x="200" y="160" width="80" height="80" as="geometry"/>
                </mxCell>
                <mxCell id="3" value="block3 addr" style="rounded=0;whiteSpace=wrap;html=1;fillColor=#fad9d5;strokeColor=#ae4132;fontColor=#000000;" vertex="1" parent="1">
                    <mxGeometry x="200" y="240" width="80" height="40" as="geometry"/>
                </mxCell>
                <mxCell id="4" value="" style="rounded=0;whiteSpace=wrap;html=1;fillColor=#fad7ac;strokeColor=#b46504;" vertex="1" parent="1">
                    <mxGeometry x="200" y="280" width="80" height="80" as="geometry"/>
                </mxCell>
                <mxCell id="5" value="block2 addr" style="rounded=0;whiteSpace=wrap;html=1;fillColor=#fad9d5;strokeColor=#ae4132;fontColor=#000000;" vertex="1" parent="1">
                    <mxGeometry x="200" y="360" width="80" height="40" as="geometry"/>
                </mxCell>
                <mxCell id="6" value="" style="rounded=0;whiteSpace=wrap;html=1;fillColor=#fad7ac;strokeColor=#b46504;" vertex="1" parent="1">
                    <mxGeometry x="200" y="400" width="80" height="80" as="geometry"/>
                </mxCell>
                <mxCell id="7" value="block1 addr" style="rounded=0;whiteSpace=wrap;html=1;fillColor=#fad9d5;strokeColor=#ae4132;fontColor=#000000;" vertex="1" parent="1">
                    <mxGeometry x="200" y="480" width="80" height="40" as="geometry"/>
                </mxCell>
                <mxCell id="8" value="" style="rounded=0;whiteSpace=wrap;html=1;fillColor=#fad7ac;strokeColor=#b46504;" vertex="1" parent="1">
                    <mxGeometry x="200" y="520" width="80" height="80" as="geometry"/>
                </mxCell>
                <mxCell id="9" value="" style="rounded=0;whiteSpace=wrap;html=1;fillColor=#fad9d5;strokeColor=#ae4132;fontColor=#000000;" vertex="1" parent="1">
                    <mxGeometry x="200" y="600" width="80" height="40" as="geometry"/>
                </mxCell>
                <mxCell id="11" value="" style="shape=curlyBracket;whiteSpace=wrap;html=1;rounded=1;flipH=1;labelPosition=right;verticalLabelPosition=middle;align=left;verticalAlign=middle;" vertex="1" parent="1">
                    <mxGeometry x="290" y="520" width="20" height="120" as="geometry"/>
                </mxCell>
                <mxCell id="16" value="" style="shape=curlyBracket;whiteSpace=wrap;html=1;rounded=1;flipH=1;labelPosition=right;verticalLabelPosition=middle;align=left;verticalAlign=middle;" vertex="1" parent="1">
                    <mxGeometry x="290" y="400" width="20" height="120" as="geometry"/>
                </mxCell>
                <mxCell id="17" value="" style="shape=curlyBracket;whiteSpace=wrap;html=1;rounded=1;flipH=1;labelPosition=right;verticalLabelPosition=middle;align=left;verticalAlign=middle;" vertex="1" parent="1">
                    <mxGeometry x="290" y="280" width="20" height="120" as="geometry"/>
                </mxCell>
                <mxCell id="18" value="" style="shape=curlyBracket;whiteSpace=wrap;html=1;rounded=1;flipH=1;labelPosition=right;verticalLabelPosition=middle;align=left;verticalAlign=middle;" vertex="1" parent="1">
                    <mxGeometry x="290" y="160" width="20" height="120" as="geometry"/>
                </mxCell>
                <mxCell id="20" value="block1" style="text;html=1;strokeColor=none;fillColor=none;align=center;verticalAlign=middle;whiteSpace=wrap;rounded=0;" vertex="1" parent="1">
                    <mxGeometry x="320" y="565" width="40" height="30" as="geometry"/>
                </mxCell>
                <mxCell id="21" value="block4" style="text;html=1;strokeColor=none;fillColor=none;align=center;verticalAlign=middle;whiteSpace=wrap;rounded=0;" vertex="1" parent="1">
                    <mxGeometry x="320" y="205" width="40" height="30" as="geometry"/>
                </mxCell>
                <mxCell id="22" value="block3" style="text;html=1;strokeColor=none;fillColor=none;align=center;verticalAlign=middle;whiteSpace=wrap;rounded=0;" vertex="1" parent="1">
                    <mxGeometry x="320" y="325" width="40" height="30" as="geometry"/>
                </mxCell>
                <mxCell id="23" value="block2" style="text;html=1;strokeColor=none;fillColor=none;align=center;verticalAlign=middle;whiteSpace=wrap;rounded=0;" vertex="1" parent="1">
                    <mxGeometry x="320" y="445" width="40" height="30" as="geometry"/>
                </mxCell>
                <mxCell id="24" value="" style="endArrow=classic;html=1;entryX=0;entryY=0;entryDx=0;entryDy=0;" edge="1" parent="1">
                    <mxGeometry width="50" height="50" relative="1" as="geometry">
                        <mxPoint x="160" y="280" as="sourcePoint"/>
                        <mxPoint x="200" y="280" as="targetPoint"/>
                    </mxGeometry>
                </mxCell>
                <mxCell id="25" value="" style="endArrow=classic;html=1;entryX=0;entryY=0;entryDx=0;entryDy=0;" edge="1" parent="1">
                    <mxGeometry width="50" height="50" relative="1" as="geometry">
                        <mxPoint x="160" y="400" as="sourcePoint"/>
                        <mxPoint x="200" y="399.17" as="targetPoint"/>
                    </mxGeometry>
                </mxCell>
                <mxCell id="26" value="" style="endArrow=classic;html=1;entryX=0;entryY=0;entryDx=0;entryDy=0;" edge="1" parent="1">
                    <mxGeometry width="50" height="50" relative="1" as="geometry">
                        <mxPoint x="160" y="519" as="sourcePoint"/>
                        <mxPoint x="200" y="519.1700000000001" as="targetPoint"/>
                    </mxGeometry>
                </mxCell>
                <mxCell id="27" value="" style="endArrow=classic;html=1;entryX=0;entryY=0;entryDx=0;entryDy=0;" edge="1" parent="1">
                    <mxGeometry width="50" height="50" relative="1" as="geometry">
                        <mxPoint x="160" y="639" as="sourcePoint"/>
                        <mxPoint x="200" y="639.1700000000001" as="targetPoint"/>
                    </mxGeometry>
                </mxCell>
                <mxCell id="28" value="block1 addr" style="text;html=1;strokeColor=none;fillColor=none;align=center;verticalAlign=middle;whiteSpace=wrap;rounded=0;" vertex="1" parent="1">
                    <mxGeometry x="90" y="630" width="70" height="20" as="geometry"/>
                </mxCell>
                <mxCell id="29" value="block2 addr" style="text;html=1;strokeColor=none;fillColor=none;align=center;verticalAlign=middle;whiteSpace=wrap;rounded=0;" vertex="1" parent="1">
                    <mxGeometry x="90" y="510" width="70" height="20" as="geometry"/>
                </mxCell>
                <mxCell id="30" value="block3 addr" style="text;html=1;strokeColor=none;fillColor=none;align=center;verticalAlign=middle;whiteSpace=wrap;rounded=0;" vertex="1" parent="1">
                    <mxGeometry x="90" y="390" width="70" height="20" as="geometry"/>
                </mxCell>
                <mxCell id="31" value="block4 addr" style="text;html=1;strokeColor=none;fillColor=none;align=center;verticalAlign=middle;whiteSpace=wrap;rounded=0;" vertex="1" parent="1">
                    <mxGeometry x="90" y="270" width="70" height="20" as="geometry"/>
                </mxCell>
                <mxCell id="32" value="" style="curved=1;endArrow=classic;html=1;entryX=0.25;entryY=0;entryDx=0;entryDy=0;" edge="1" parent="1" target="31">
                    <mxGeometry width="50" height="50" relative="1" as="geometry">
                        <mxPoint x="30" y="255" as="sourcePoint"/>
                        <mxPoint x="80" y="205" as="targetPoint"/>
                        <Array as="points">
                            <mxPoint x="60" y="280"/>
                            <mxPoint x="70" y="240"/>
                        </Array>
                    </mxGeometry>
                </mxCell>
                <mxCell id="33" value="free_list" style="text;html=1;strokeColor=none;fillColor=none;align=center;verticalAlign=middle;whiteSpace=wrap;rounded=0;" vertex="1" parent="1">
                    <mxGeometry x="-20" y="230" width="70" height="20" as="geometry"/>
                </mxCell>
            </root>
        </mxGraphModel>
    </diagram>
</mxfile>